<?xml version="1.0" encoding="UTF-8" standalone="no"?>
<!-- Created with Inkscape (http://www.inkscape.org/) -->

<svg
   xmlns:dc="http://purl.org/dc/elements/1.1/"
   xmlns:cc="http://creativecommons.org/ns#"
   xmlns:rdf="http://www.w3.org/1999/02/22-rdf-syntax-ns#"
   xmlns:svg="http://www.w3.org/2000/svg"
   xmlns="http://www.w3.org/2000/svg"
   xmlns:sodipodi="http://sodipodi.sourceforge.net/DTD/sodipodi-0.dtd"
   xmlns:inkscape="http://www.inkscape.org/namespaces/inkscape"
   id="svg4190"
   version="1.1"
   inkscape:version="0.91 r13725"
   width="128"
   height="128"
   viewBox="0 0 128 128"
   sodipodi:docname="sat.svg">
  <metadata
     id="metadata4196">
    <rdf:RDF>
      <cc:Work
         rdf:about="">
        <dc:format>image/svg+xml</dc:format>
        <dc:type
           rdf:resource="http://purl.org/dc/dcmitype/StillImage" />
        <dc:title></dc:title>
      </cc:Work>
    </rdf:RDF>
  </metadata>
  <defs
     id="defs4194" />
  <sodipodi:namedview
     pagecolor="#ffffff"
     bordercolor="#666666"
     borderopacity="1"
     objecttolerance="10"
     gridtolerance="10"
     guidetolerance="10"
     inkscape:pageopacity="0"
     inkscape:pageshadow="2"
     inkscape:window-width="1600"
     inkscape:window-height="1139"
     id="namedview4192"
     showgrid="false"
     inkscape:zoom="5.0878543"
     inkscape:cx="58.382797"
     inkscape:cy="84.417597"
     inkscape:window-x="0"
     inkscape:window-y="29"
     inkscape:window-maximized="1"
     inkscape:current-layer="svg4190" />
  <path
     style="fill:#000000;fill-opacity:1;stroke:#000000;stroke-width:1.96259534;stroke-miterlimit:4;stroke-dasharray:none;stroke-opacity:1"
     d="M 48.216797,6.9707031 C 37.89889,7.4254784 31.623176,7.0147089 25.369141,15.300781 c -14.964972,23.310688 -12.790063,53.707083 5.27539,73.728516 19.684715,21.718513 52.303792,24.847273 76.460939,7.333984 17.33182,-12.211079 6.25082,-35.269089 -0.62109,-48.232422 l -3.44532,6.314453 c 9.32401,15.477559 10.4988,29.205508 3.02344,35.330079 C 95.276043,98.559328 70.256123,89.070068 50.177734,68.580078 30.098439,48.089381 22.564243,24.356138 33.349609,15.570312 c 2.612577,-2.127914 6.174405,-3.23837 10.47461,-3.265624 6.734617,-0.03035 14.995513,2.590077 23.61914,7.492187 L 75.9375,16.158203 C 66.584816,10.457463 56.921348,7.2546906 48.216797,6.9707031 Z"
     id="path4204"
     inkscape:connector-curvature="0"
     sodipodi:nodetypes="cccccccsccccc" />
  <path
     style="fill:#000000;fill-opacity:1;stroke:#000000;stroke-width:2;stroke-miterlimit:4;stroke-dasharray:none;stroke-opacity:1"
     d="M 101.17773 9.5898438 A 11.396308 11.11835 0 0 0 89.78125 20.707031 A 11.396308 11.11835 0 0 0 89.789062 20.947266 L 57.537109 30.714844 C 57.537109 30.714844 54.479962 31.82722 55.591797 34.884766 C 56.703632 37.942312 60.595703 36.273437 60.595703 36.273438 L 91.324219 26.269531 A 11.396308 11.11835 0 0 0 95.962891 30.582031 L 85.994141 61.201172 C 85.994141 61.201172 84.32722 65.09129 87.384766 66.203125 C 90.442312 67.31496 91.552734 64.257812 91.552734 64.257812 L 101.37695 31.820312 A 11.396308 11.11835 0 0 0 112.57422 20.707031 A 11.396308 11.11835 0 0 0 101.17773 9.5898438 z "
     id="path4224" />
  <path
     style="fill:#000000;fill-rule:evenodd;stroke:#000000;stroke-width:1px;stroke-linecap:butt;stroke-linejoin:miter;stroke-opacity:1;fill-opacity:1"
     d="m 12.230185,118.27144 9.172638,-21.12486 c 0,0 1.389794,-3.613464 2.779587,-3.335505 1.389794,0.277959 5.281216,10.562435 23.070576,17.233445 l 4.44734,11.11835 -38.080348,0 z"
     id="path4231"
     inkscape:connector-curvature="0"
     sodipodi:nodetypes="ccscccc" />
</svg>
